<?xml version="1.0" standalone="no"?>
<!DOCTYPE svg PUBLIC "-//W3C//DTD SVG 20010904//EN"
 "http://www.w3.org/TR/2001/REC-SVG-20010904/DTD/svg10.dtd">
<svg version="1.0" xmlns="http://www.w3.org/2000/svg"
 width="381.000000pt" height="381.000000pt" viewBox="0 0 381.000000 381.000000"
 preserveAspectRatio="xMidYMid meet">
<metadata>
Created by potrace 1.11, written by Peter Selinger 2001-2013
</metadata>
<g transform="translate(0.000000,381.000000) scale(0.100000,-0.100000)"
fill="#000000" stroke="none">
<path d="M1420 2981 c0 -6 -3 -10 -7 -9 -12 3 -53 -25 -53 -36 0 -5 -8 -18
-17 -29 -13 -15 -14 -18 -3 -12 12 6 12 5 3 -5 -8 -9 -57 -12 -188 -11 -136 0
-174 -2 -169 -12 5 -9 4 -9 -7 1 -16 14 -33 16 -24 2 3 -6 -1 -7 -9 -4 -9 3
-16 1 -16 -5 0 -6 -7 -11 -15 -11 -8 0 -15 -9 -15 -21 0 -11 -3 -18 -8 -15 -4
2 -7 -41 -6 -97 1 -73 6 -111 18 -132 9 -17 12 -31 6 -33 -6 -2 -10 -14 -10
-27 0 -13 -5 -27 -10 -30 -6 -4 -8 -11 -4 -16 3 -5 1 -15 -4 -22 -6 -7 -12
-28 -15 -47 -3 -19 -12 -60 -19 -90 -8 -30 -13 -65 -12 -77 1 -13 -1 -23 -5
-23 -3 0 -6 -15 -5 -32 0 -18 -3 -41 -8 -50 -5 -10 -3 -18 4 -20 8 -3 8 -10
-2 -27 -10 -19 -10 -25 1 -32 11 -7 11 -9 1 -9 -8 0 -10 -5 -6 -12 11 -17 12
-48 2 -42 -4 3 -8 1 -8 -5 0 -5 5 -13 10 -16 7 -4 6 -13 -1 -26 -7 -14 -7 -24
0 -32 6 -8 6 -18 1 -27 -5 -8 -5 -21 0 -30 6 -11 5 -21 -2 -28 -8 -8 -8 -12
-1 -12 6 0 8 -11 5 -25 -2 -14 -9 -25 -14 -25 -5 0 -6 -4 -3 -10 3 -5 1 -10
-5 -10 -8 0 -8 -6 0 -20 8 -15 5 -24 -17 -45 -15 -14 -23 -25 -18 -25 6 0 3
-5 -5 -10 -8 -5 -10 -10 -5 -10 12 0 13 -40 2 -57 -4 -7 -3 -14 3 -18 7 -4 7
-12 0 -26 -6 -11 -7 -19 -1 -19 5 0 12 -7 15 -16 4 -10 2 -13 -7 -8 -6 4 2 -8
18 -26 17 -18 23 -29 15 -25 -13 8 -13 7 -1 -8 10 -13 10 -17 1 -17 -10 0 -10
-3 0 -15 10 -12 10 -15 -1 -15 -11 0 -11 -2 1 -10 13 -8 13 -13 2 -30 -7 -11
-10 -26 -6 -32 5 -7 3 -8 -5 -3 -10 6 -12 -17 -9 -105 l3 -112 38 -34 c22 -18
45 -30 53 -27 8 3 14 -1 14 -8 0 -10 3 -10 12 -1 19 19 28 14 28 -13 0 -14 5
-25 11 -25 6 0 9 -7 5 -15 -3 -8 -1 -15 4 -15 6 0 10 -7 10 -16 0 -8 4 -12 10
-9 5 3 12 -6 16 -20 3 -14 19 -32 35 -41 16 -8 29 -19 29 -24 0 -6 7 -10 15
-10 8 0 15 -4 15 -10 0 -5 7 -7 15 -4 8 4 15 1 15 -7 0 -7 3 -10 6 -6 4 3 18
0 33 -7 14 -7 34 -12 43 -11 10 2 20 -1 24 -6 3 -5 12 -5 22 0 9 5 27 7 40 5
16 -3 21 0 16 8 -4 6 -3 8 3 5 6 -4 28 1 49 10 22 9 41 17 44 18 23 7 39 19
35 26 -3 5 6 11 20 15 13 3 23 10 20 14 -3 4 2 11 11 14 8 3 12 10 9 16 -3 5
-2 10 3 10 9 0 58 90 55 101 -1 3 4 6 12 6 8 0 11 -5 8 -10 -4 -6 -1 -7 8 -1
19 11 671 12 687 1 7 -6 12 -6 12 0 0 5 7 10 15 10 9 0 17 -14 21 -34 3 -18
10 -33 14 -33 5 0 12 -9 15 -21 7 -20 68 -89 80 -89 3 0 15 -9 27 -20 12 -11
30 -20 39 -20 10 0 21 -5 25 -11 3 -6 15 -9 25 -6 11 3 19 2 19 -3 0 -4 10 -6
23 -6 12 1 30 -1 39 -6 10 -5 19 -4 24 3 3 6 15 9 25 6 11 -3 19 -1 19 4 0 5
11 9 25 9 14 0 25 5 25 12 0 6 3 8 7 5 3 -4 15 1 26 10 10 10 22 18 26 18 3 0
5 3 4 7 -2 4 6 10 17 13 19 6 79 75 85 98 10 39 19 57 29 58 6 1 34 2 61 4 62
2 107 14 99 26 -3 5 0 9 6 9 14 0 43 67 35 80 -4 6 -1 10 4 10 6 0 11 7 11 16
0 8 -5 12 -11 8 -8 -4 -8 -1 -2 12 8 18 9 59 0 111 -2 12 -12 32 -22 43 -22
25 -22 80 0 93 8 4 15 15 15 23 0 10 5 12 13 8 8 -5 8 -2 -2 9 -10 13 -10 17
-1 17 10 0 10 3 0 15 -10 12 -10 15 1 15 11 0 11 2 -1 10 -8 5 -10 10 -5 10 6
0 9 19 8 42 0 24 3 51 9 62 6 12 6 16 0 12 -11 -6 -10 44 2 62 3 6 -3 13 -14
17 -11 4 -18 11 -15 16 4 5 0 9 -8 9 -12 0 -14 19 -13 98 1 53 5 102 9 109 4
6 3 14 -3 18 -12 8 -10 55 4 74 8 11 8 13 0 8 -11 -6 -16 62 -16 195 0 24 -4
35 -11 31 -6 -4 -7 -1 -1 8 13 22 15 49 3 49 -8 0 -8 4 0 14 9 11 9 16 0 21
-8 6 -7 10 2 16 8 5 9 9 3 9 -6 0 -10 18 -9 43 1 23 -3 48 -9 55 -7 9 -6 16 3
22 11 6 11 9 0 13 -11 4 -11 6 -1 6 7 1 10 6 7 12 -4 5 -8 31 -10 57 -4 60
-15 102 -26 102 -5 0 -9 8 -9 18 0 9 -18 36 -40 60 -36 38 -50 47 -72 43 -5 0
-8 3 -8 8 0 6 -9 8 -20 6 -11 -2 -20 0 -20 6 0 11 -22 7 -32 -6 -5 -7 -8 -6
-8 0 0 7 -49 12 -132 14 -73 1 -135 4 -137 7 -3 2 -6 15 -8 27 -2 12 -10 27
-18 33 -8 6 -13 14 -10 17 3 4 2 5 -1 2 -4 -2 -16 1 -28 7 -24 13 -1035 18
-1043 5 -3 -4 -11 -3 -19 4 -10 8 -14 8 -14 0z"/>
</g>
</svg>
